# xmcd
#
# Track frame offsets:
#	150
#	10143
#	16135
#	23696
#	29125
#	34006
#	39301
#	43686
#	57123
#	65443
#	70792
#
# Disc length: 1057 seconds
#
# Revision: 4
# Processed by: cddbd v1.5.2PL0 Copyright (c) Steve Scherf et al.
# Submitted via: EasyCDDAExtractor 16.0.8.2
#
DISCID=84041f0b
DTITLE=Άγνωστος - Πασχαλινό γλέντι 2
DYEAR=1900
DGENRE=Ποικίλη
TTITLE0=Τα παλαμάκια [Γ. Μητσάκης]
TTITLE1=Σκαλί, καλέ μου, σκαλί Ν. Γούναρης-Χ. Βασιλειάδης]
TTITLE2=Στην καλύβα την δική μου [Γ. Μητσάκης]
TTITLE3=Νίτσα, Ελενίτσα [Γ. Μητσάκης]
TTITLE4=Πάνω σε ψηλή ραχούλα [παραδοσιακό]
TTITLE5=Καραγκούνα πάει να πλύνει [παραδοσιακό]
TTITLE6=Μπήκαν τα γίδια στο μαντρί [παραδοσιακό]
TTITLE7=Όλες οι μελαχροινές [διασκ. Γ. Παπασιδέρης]
TTITLE8=Δω στα λιανοχορταρούδια [παραδ. Θράκης]
TTITLE9=Σ' αυτό το αλώνι το φαρδύ [παραδ. Θράκης]
TTITLE10=Σουλτάνα [παραδ. Θράκης]
EXTD=
EXTT0=
EXTT1=
EXTT2=
EXTT3=
EXTT4=
EXTT5=
EXTT6=
EXTT7=
EXTT8=
EXTT9=
EXTT10=
PLAYORDER=
